<?xml version="1.0" encoding="utf-8"?>
<!-- Generator: Adobe Illustrator 19.0.0, SVG Export Plug-In . SVG Version: 6.00 Build 0)  -->
<svg version="1.1" id="Layer_1" xmlns="http://www.w3.org/2000/svg" xmlns:xlink="http://www.w3.org/1999/xlink" x="0px" y="0px"
	 viewBox="0 0 1280 800" style="enable-background:new 0 0 1280 800;" xml:space="preserve">
<style type="text/css">
	.st0{fill:url(#XMLID_2_);}
</style>
<radialGradient id="XMLID_2_" cx="755.7394" cy="435.675" r="754.2552" fx="72.8131" fy="755.8508" gradientUnits="userSpaceOnUse">
	<stop  offset="0.1451" style="stop-color:#F7931E"/>
	<stop  offset="1" style="stop-color:#FCEE21"/>
</radialGradient>
<path id="XMLID_4_" class="st0" d="M168.7,772c11.9,5,24.2,11.3,37,9.5c8.5-1.2,16.1-5.8,23.7-9.9c45.9-24.4,102-28.9,151.2-12.1
	c12.6,4.3,25.2,10,38.5,9.4c11-0.5,21.3-5.4,31.6-9.3c46.9-17.7,100.6-16.1,146.4,4.2c8.8,3.9,17.7,8.6,27.3,8.6
	c9.2,0.1,17.9-4,26.5-7.5c43.8-17.5,94.1-18,138.2-1.4c9.3,3.5,18.6,7.8,28.6,8c12.8,0.3,24.6-6.2,36.3-11.3
	c39.7-17.3,85.7-19.8,127-6.7c11,3.5,21.9,8,33.4,8.1c8.2,0.1,16.1-2.2,24-4.4c33.4-9.3,64.7-21.5,98.1-22.5
	c8.3-0.3,16.8,0.2,25.4,1.5c33.4,5.2,64.9,17.8,92.5,37.4c8.7,6.2,16.9,13,24.6,20.4V530.6c0,0-15.4-191.3-288.9-191.3S652,1,652,1
	H2c0,1.8-0.6,666.9-1.9,782.3C50.5,755.7,111.3,748.2,168.7,772z"/>
</svg>
